<svg width="25" height="25" viewBox="0 0 25 25" fill="none" xmlns="http://www.w3.org/2000/svg">
<g filter="url(#filter0_bii_4_4774)">
<path d="M6.34494 3.30511C4.66805 3.30511 3.30469 4.66848 3.30469 6.34537V18.5064C3.30469 20.1833 4.66805 21.5466 6.34494 21.5466H18.506C20.1828 21.5466 21.5462 20.1833 21.5462 18.5064V6.34537C21.5462 4.66848 20.1828 3.30511 18.506 3.30511H6.34494ZM10.8436 9.0816L12.8387 13.642L13.5038 15.1621C13.6701 15.5469 13.499 15.9934 13.1143 16.1644C12.7295 16.3355 12.2829 16.1549 12.1119 15.7749L11.6416 14.7061H8.64888L8.18335 15.7702C8.01708 16.1549 7.56579 16.3307 7.18101 16.1597C6.79623 15.9887 6.62046 15.5421 6.79148 15.1574L7.45653 13.6372L9.4517 9.07685C9.57046 8.80132 9.84598 8.62081 10.15 8.62081C10.454 8.62081 10.7248 8.80132 10.8483 9.07685L10.8436 9.0816ZM10.1453 11.281L9.31394 13.1859H10.9813L10.1453 11.281ZM16.9858 9.38562V15.4661C16.9858 15.8842 16.6438 16.2262 16.2258 16.2262C15.8077 16.2262 15.4657 15.8842 15.4657 15.4661V9.38562C15.4657 8.96759 15.8077 8.62556 16.2258 8.62556C16.6438 8.62556 16.9858 8.96759 16.9858 9.38562Z" fill="#6746F6"/>
</g>
<g opacity="0.4" filter="url(#filter1_biiii_4_4774)">
<path d="M8.69957 1.47908C8.69957 0.847282 8.19127 0.338989 7.55947 0.338989C6.92767 0.338989 6.41938 0.847282 6.41938 1.47908V3.37924H8.69957V1.47908ZM13.64 3.37924V1.47908C13.64 0.847282 13.1317 0.338989 12.4999 0.338989C11.8681 0.338989 11.3598 0.847282 11.3598 1.47908V3.37924H13.64ZM18.5804 3.37924V1.47908C18.5804 0.847282 18.0721 0.338989 17.4403 0.338989C16.8085 0.338989 16.3002 0.847282 16.3002 1.47908V3.37924H18.5804ZM21.6206 8.69969H23.5208C24.1526 8.69969 24.6609 8.1914 24.6609 7.55959C24.6609 6.92779 24.1526 6.4195 23.5208 6.4195H21.6206V8.69969ZM21.6206 13.6401H23.5208C24.1526 13.6401 24.6609 13.1318 24.6609 12.5C24.6609 11.8682 24.1526 11.3599 23.5208 11.3599H21.6206V13.6401ZM21.6206 18.5805H23.5208C24.1526 18.5805 24.6609 18.0722 24.6609 17.4404C24.6609 16.8086 24.1526 16.3003 23.5208 16.3003H21.6206V18.5805ZM16.3002 21.6208V23.5209C16.3002 24.1527 16.8085 24.661 17.4403 24.661C18.0721 24.661 18.5804 24.1527 18.5804 23.5209V21.6208H16.3002ZM11.3598 21.6208V23.5209C11.3598 24.1527 11.8681 24.661 12.4999 24.661C13.1317 24.661 13.64 24.1527 13.64 23.5209V21.6208H11.3598ZM6.41938 21.6208V23.5209C6.41938 24.1527 6.92767 24.661 7.55947 24.661C8.19127 24.661 8.69957 24.1527 8.69957 23.5209V21.6208H6.41938ZM3.37912 16.3003H1.47896C0.84716 16.3003 0.338867 16.8086 0.338867 17.4404C0.338867 18.0722 0.84716 18.5805 1.47896 18.5805H3.37912V16.3003ZM3.37912 11.3599H1.47896C0.84716 11.3599 0.338867 11.8682 0.338867 12.5C0.338867 13.1318 0.84716 13.6401 1.47896 13.6401H3.37912V11.3599ZM3.37912 6.4195H1.47896C0.84716 6.4195 0.338867 6.92779 0.338867 7.55959C0.338867 8.1914 0.84716 8.69969 1.47896 8.69969H3.37912V6.4195Z" fill="#6746F6"/>
</g>
<defs>
<filter id="filter0_bii_4_4774" x="0.872484" y="0.872911" width="23.1056" height="23.1059" filterUnits="userSpaceOnUse" color-interpolation-filters="sRGB">
<feFlood flood-opacity="0" result="BackgroundImageFix"/>
<feGaussianBlur in="BackgroundImageFix" stdDeviation="1.2161"/>
<feComposite in2="SourceAlpha" operator="in" result="effect1_backgroundBlur_4_4774"/>
<feBlend mode="normal" in="SourceGraphic" in2="effect1_backgroundBlur_4_4774" result="shape"/>
<feColorMatrix in="SourceAlpha" type="matrix" values="0 0 0 0 0 0 0 0 0 0 0 0 0 0 0 0 0 0 127 0" result="hardAlpha"/>
<feOffset dx="-0.24322" dy="0.24322"/>
<feGaussianBlur stdDeviation="0.12161"/>
<feComposite in2="hardAlpha" operator="arithmetic" k2="-1" k3="1"/>
<feColorMatrix type="matrix" values="0 0 0 0 1 0 0 0 0 1 0 0 0 0 1 0 0 0 0.4 0"/>
<feBlend mode="normal" in2="shape" result="effect2_innerShadow_4_4774"/>
<feColorMatrix in="SourceAlpha" type="matrix" values="0 0 0 0 0 0 0 0 0 0 0 0 0 0 0 0 0 0 127 0" result="hardAlpha"/>
<feOffset dx="0.24322" dy="-0.24322"/>
<feGaussianBlur stdDeviation="0.12161"/>
<feComposite in2="hardAlpha" operator="arithmetic" k2="-1" k3="1"/>
<feColorMatrix type="matrix" values="0 0 0 0 0.339294 0 0 0 0 0.230588 0 0 0 0 0.810353 0 0 0 0.4 0"/>
<feBlend mode="normal" in2="effect2_innerShadow_4_4774" result="effect3_innerShadow_4_4774"/>
</filter>
<filter id="filter1_biiii_4_4774" x="-9.38995" y="-9.38982" width="43.7799" height="43.7796" filterUnits="userSpaceOnUse" color-interpolation-filters="sRGB">
<feFlood flood-opacity="0" result="BackgroundImageFix"/>
<feGaussianBlur in="BackgroundImageFix" stdDeviation="4.86441"/>
<feComposite in2="SourceAlpha" operator="in" result="effect1_backgroundBlur_4_4774"/>
<feBlend mode="normal" in="SourceGraphic" in2="effect1_backgroundBlur_4_4774" result="shape"/>
<feColorMatrix in="SourceAlpha" type="matrix" values="0 0 0 0 0 0 0 0 0 0 0 0 0 0 0 0 0 0 127 0" result="hardAlpha"/>
<feOffset dx="-0.648588" dy="0.648588"/>
<feGaussianBlur stdDeviation="0.324294"/>
<feComposite in2="hardAlpha" operator="arithmetic" k2="-1" k3="1"/>
<feColorMatrix type="matrix" values="0 0 0 0 0.323137 0 0 0 0 0.219608 0 0 0 0 0.771765 0 0 0 0.4 0"/>
<feBlend mode="normal" in2="shape" result="effect2_innerShadow_4_4774"/>
<feColorMatrix in="SourceAlpha" type="matrix" values="0 0 0 0 0 0 0 0 0 0 0 0 0 0 0 0 0 0 127 0" result="hardAlpha"/>
<feOffset dx="-0.324294" dy="0.324294"/>
<feGaussianBlur stdDeviation="0.162147"/>
<feComposite in2="hardAlpha" operator="arithmetic" k2="-1" k3="1"/>
<feColorMatrix type="matrix" values="0 0 0 0 1 0 0 0 0 1 0 0 0 0 1 0 0 0 0.4 0"/>
<feBlend mode="normal" in2="effect2_innerShadow_4_4774" result="effect3_innerShadow_4_4774"/>
<feColorMatrix in="SourceAlpha" type="matrix" values="0 0 0 0 0 0 0 0 0 0 0 0 0 0 0 0 0 0 127 0" result="hardAlpha"/>
<feOffset dx="0.648588" dy="-0.648588"/>
<feGaussianBlur stdDeviation="0.324294"/>
<feComposite in2="hardAlpha" operator="arithmetic" k2="-1" k3="1"/>
<feColorMatrix type="matrix" values="0 0 0 0 1 0 0 0 0 1 0 0 0 0 1 0 0 0 0.4 0"/>
<feBlend mode="normal" in2="effect3_innerShadow_4_4774" result="effect4_innerShadow_4_4774"/>
<feColorMatrix in="SourceAlpha" type="matrix" values="0 0 0 0 0 0 0 0 0 0 0 0 0 0 0 0 0 0 127 0" result="hardAlpha"/>
<feOffset dx="0.324294" dy="-0.324294"/>
<feGaussianBlur stdDeviation="0.162147"/>
<feComposite in2="hardAlpha" operator="arithmetic" k2="-1" k3="1"/>
<feColorMatrix type="matrix" values="0 0 0 0 0.323137 0 0 0 0 0.219608 0 0 0 0 0.771765 0 0 0 0.4 0"/>
<feBlend mode="normal" in2="effect4_innerShadow_4_4774" result="effect5_innerShadow_4_4774"/>
</filter>
</defs>
</svg>
