<svg width="144" height="144" viewBox="0 0 144 144" fill="none" xmlns="http://www.w3.org/2000/svg">
<g opacity="0.2">
<g filter="url(#filter0_bii_1_5837)">
<path d="M143.944 56.9529C143.494 51.8623 140.878 47.1373 136.716 44.0716L126 36.1404V58.5279V70.2279L143.944 56.9529ZM144 126V68.0904L82.8 113.428C79.6781 115.762 75.8812 117 72 117C68.1188 117 64.3219 115.762 61.2 113.428L0 68.0904V126C0 135.928 8.07188 144 18 144H126C135.928 144 144 135.928 144 126ZM18 70.2279V58.5279V36.1404L7.28437 44.0716C3.12187 47.1373 0.50625 51.8623 0.05625 56.9529L18 70.2279ZM81.4219 3.12163C78.6937 1.09663 75.4031 -0.000244141 72 -0.000244141C68.5969 -0.000244141 65.3063 1.09663 62.5781 3.09351L54.6187 8.99976H89.3812L81.4219 3.12163ZM49.5 35.9998C47.025 35.9998 45 38.0248 45 40.4998C45 42.9748 47.025 44.9998 49.5 44.9998H94.5C96.975 44.9998 99 42.9748 99 40.4998C99 38.0248 96.975 35.9998 94.5 35.9998H49.5ZM49.5 53.9998C47.025 53.9998 45 56.0248 45 58.4998C45 60.9748 47.025 62.9998 49.5 62.9998H94.5C96.975 62.9998 99 60.9748 99 58.4998C99 56.0248 96.975 53.9998 94.5 53.9998H49.5Z" fill="#3E97FF" fill-opacity="0.8"/>
</g>
<g opacity="0.4" filter="url(#filter1_bii_1_5837)">
<path d="M26.5605 10.5362C21.5824 10.5362 17.5605 14.5581 17.5605 19.5362V71.7643L66.1324 107.736C67.7074 108.889 69.6199 109.536 71.5605 109.536C73.5012 109.536 75.4137 108.917 76.9887 107.736L125.561 71.7643V19.5362C125.561 14.5581 121.539 10.5362 116.561 10.5362H26.5605ZM49.0605 37.5362H94.0605C96.5355 37.5362 98.5605 39.5612 98.5605 42.0362C98.5605 44.5112 96.5355 46.5362 94.0605 46.5362H49.0605C46.5855 46.5362 44.5605 44.5112 44.5605 42.0362C44.5605 39.5612 46.5855 37.5362 49.0605 37.5362ZM49.0605 55.5362H94.0605C96.5355 55.5362 98.5605 57.5612 98.5605 60.0362C98.5605 62.5112 96.5355 64.5362 94.0605 64.5362H49.0605C46.5855 64.5362 44.5605 62.5112 44.5605 60.0362C44.5605 57.5612 46.5855 55.5362 49.0605 55.5362Z" fill="#3E97FF" fill-opacity="0.8"/>
</g>
</g>
<defs>
<filter id="filter0_bii_1_5837" x="-2.31284" y="-2.31308" width="148.626" height="148.626" filterUnits="userSpaceOnUse" color-interpolation-filters="sRGB">
<feFlood flood-opacity="0" result="BackgroundImageFix"/>
<feGaussianBlur in="BackgroundImageFix" stdDeviation="0.902006"/>
<feComposite in2="SourceAlpha" operator="in" result="effect1_backgroundBlur_1_5837"/>
<feBlend mode="normal" in="SourceGraphic" in2="effect1_backgroundBlur_1_5837" result="shape"/>
<feColorMatrix in="SourceAlpha" type="matrix" values="0 0 0 0 0 0 0 0 0 0 0 0 0 0 0 0 0 0 127 0" result="hardAlpha"/>
<feOffset dx="-2.31284" dy="2.31284"/>
<feGaussianBlur stdDeviation="1.15642"/>
<feComposite in2="hardAlpha" operator="arithmetic" k2="-1" k3="1"/>
<feColorMatrix type="matrix" values="0 0 0 0 1 0 0 0 0 1 0 0 0 0 1 0 0 0 0.2 0"/>
<feBlend mode="normal" in2="shape" result="effect2_innerShadow_1_5837"/>
<feColorMatrix in="SourceAlpha" type="matrix" values="0 0 0 0 0 0 0 0 0 0 0 0 0 0 0 0 0 0 127 0" result="hardAlpha"/>
<feOffset dx="2.31284" dy="-2.31284"/>
<feGaussianBlur stdDeviation="1.15642"/>
<feComposite in2="hardAlpha" operator="arithmetic" k2="-1" k3="1"/>
<feColorMatrix type="matrix" values="0 0 0 0 0.185349 0 0 0 0 0.449688 0 0 0 0 0.76 0 0 0 0.2 0"/>
<feBlend mode="normal" in2="effect2_innerShadow_1_5837" result="effect3_innerShadow_1_5837"/>
</filter>
<filter id="filter1_bii_1_5837" x="12.1413" y="5.11693" width="118.839" height="109.839" filterUnits="userSpaceOnUse" color-interpolation-filters="sRGB">
<feFlood flood-opacity="0" result="BackgroundImageFix"/>
<feGaussianBlur in="BackgroundImageFix" stdDeviation="2.70963"/>
<feComposite in2="SourceAlpha" operator="in" result="effect1_backgroundBlur_1_5837"/>
<feBlend mode="normal" in="SourceGraphic" in2="effect1_backgroundBlur_1_5837" result="shape"/>
<feColorMatrix in="SourceAlpha" type="matrix" values="0 0 0 0 0 0 0 0 0 0 0 0 0 0 0 0 0 0 127 0" result="hardAlpha"/>
<feOffset dx="-0.33247" dy="0.33247"/>
<feGaussianBlur stdDeviation="0.166235"/>
<feComposite in2="hardAlpha" operator="arithmetic" k2="-1" k3="1"/>
<feColorMatrix type="matrix" values="0 0 0 0 1 0 0 0 0 1 0 0 0 0 1 0 0 0 0.6 0"/>
<feBlend mode="normal" in2="shape" result="effect2_innerShadow_1_5837"/>
<feColorMatrix in="SourceAlpha" type="matrix" values="0 0 0 0 0 0 0 0 0 0 0 0 0 0 0 0 0 0 127 0" result="hardAlpha"/>
<feOffset dx="0.33247" dy="-0.33247"/>
<feGaussianBlur stdDeviation="0.166235"/>
<feComposite in2="hardAlpha" operator="arithmetic" k2="-1" k3="1"/>
<feColorMatrix type="matrix" values="0 0 0 0 0.204859 0 0 0 0 0.497024 0 0 0 0 0.84 0 0 0 0.6 0"/>
<feBlend mode="normal" in2="effect2_innerShadow_1_5837" result="effect3_innerShadow_1_5837"/>
</filter>
</defs>
</svg>
